<svg width="42" height="42" fill="none" xmlns="http://www.w3.org/2000/svg">
  <path d="M0 26h42M9.5 6.5h23v15h-23z" stroke="#fff" />
  <path
    d="M12.47 32.409c0 1.176-.114 2.373-.857 3.085-.371.361-.898.64-1.672.64-.774 0-1.3-.279-1.672-.64-.743-.712-.856-1.909-.856-3.085 0-1.177.113-2.374.856-3.086.372-.361.898-.63 1.672-.63.774 0 1.3.269 1.672.63.743.712.857 1.91.857 3.086zm-1.311 0c0-.93.114-2.529-1.218-2.529-1.331 0-1.218 1.6-1.218 2.529 0 .928-.113 2.528 1.218 2.528 1.332 0 1.218-1.6 1.218-2.528zm7.196 0c0 1.176-.113 2.373-.856 3.085-.372.361-.898.64-1.672.64-.774 0-1.3-.279-1.672-.64-.743-.712-.857-1.909-.857-3.085 0-1.177.114-2.374.857-3.086.372-.361.898-.63 1.672-.63.774 0 1.3.269 1.672.63.743.712.856 1.91.856 3.086zm-1.31 0c0-.93.113-2.529-1.218-2.529-1.332 0-1.218 1.6-1.218 2.529 0 .928-.114 2.528 1.218 2.528 1.331 0 1.218-1.6 1.218-2.528zm4.255-.217H19.74v-1.558H21.3v1.558zm0 3.808H19.74v-1.558H21.3V36zm6.257-3.591c0 1.176-.114 2.373-.857 3.085-.372.361-.898.64-1.672.64-.774 0-1.3-.279-1.672-.64-.743-.712-.856-1.909-.856-3.085 0-1.177.113-2.374.856-3.086.372-.361.898-.63 1.672-.63.774 0 1.3.269 1.672.63.743.712.857 1.91.857 3.086zm-1.311 0c0-.93.113-2.529-1.218-2.529s-1.218 1.6-1.218 2.529c0 .928-.113 2.528 1.218 2.528s1.218-1.6 1.218-2.528zm7.196 0c0 1.176-.113 2.373-.856 3.085-.372.361-.898.64-1.672.64-.774 0-1.3-.279-1.672-.64-.743-.712-.857-1.909-.857-3.085 0-1.177.114-2.374.857-3.086.371-.361.898-.63 1.672-.63.774 0 1.3.269 1.672.63.743.712.856 1.91.856 3.086zm-1.31 0c0-.93.113-2.529-1.218-2.529-1.332 0-1.218 1.6-1.218 2.529 0 .928-.114 2.528 1.218 2.528 1.331 0 1.218-1.6 1.218-2.528z"
    fill="#fff" />
</svg>