<svg width="220" height="80" fill="none" xmlns="http://www.w3.org/2000/svg">
  <path d="M110 33v20m10-10h-20" stroke="#fff" stroke-width="2" />
  <circle cx="180" cy="40" r="40" fill="#fff" />
  <path d="M170 54V26l26 14-26 14z" fill="#000" />
  <mask id="prefix__a" style="mask-type:alpha" maskUnits="userSpaceOnUse" x="0" y="0" width="80" height="80">
    <path d="M40 80c22.091 0 40-17.909 40-40S62.091 0 40 0 0 17.909 0 40s17.909 40 40 40z" fill="#000" />
  </mask>
  <g mask="url(#prefix__a)">
    <path d="M40 80c22.091 0 40-17.909 40-40S62.091 0 40 0 0 17.909 0 40s17.909 40 40 40z" fill="#000" />
    <path d="M66.448 70.009L30.73 24H24v31.987h5.384v-25.15l32.838 42.427a40.133 40.133 0 004.226-3.255z"
      fill="url(#prefix__prefix__paint0_linear_104_24)" />
    <path d="M56.444 24h-5.333v32h5.333V24z" fill="url(#prefix__prefix__paint1_linear_104_24)" />
  </g>
  <rect x="1" y="1" width="78" height="78" rx="39" stroke="#fff" stroke-width="2" />
  <defs>
    <linearGradient id="prefix__prefix__paint0_linear_104_24" x1="48.444" y1="51.778" x2="64.222" y2="71.333"
      gradientUnits="userSpaceOnUse">
      <stop stop-color="#fff" />
      <stop offset="1" stop-color="#fff" stop-opacity="0" />
    </linearGradient>
    <linearGradient id="prefix__prefix__paint1_linear_104_24" x1="53.778" y1="24" x2="53.688" y2="47.5"
      gradientUnits="userSpaceOnUse">
      <stop stop-color="#fff" />
      <stop offset="1" stop-color="#fff" stop-opacity="0" />
    </linearGradient>
  </defs>
</svg>