<svg width="42" height="42" fill="none" xmlns="http://www.w3.org/2000/svg">
  <path d="M20.13 7.772l5.218 5.217-5.218 5.217" stroke="#fff" stroke-miterlimit="10" />
  <path
    d="M9.696 30.38A8.665 8.665 0 011 21.685c0-4.783 4-8.696 8.87-8.696h15.608M21.956 35.685l-5.304-5.305 5.304-5.304"
    stroke="#fff" stroke-miterlimit="10" />
  <path
    d="M32.304 12.99A8.666 8.666 0 0141 21.684c0 4.782-4 8.695-8.87 8.695H16.522M30.565 40.815V33.86M34.043 37.337h-6.956M11.435 24.293v-5.217M14.044 21.685H8.826M36.652 9.51V2.555M40.13 6.033h-6.956"
    stroke="#fff" stroke-miterlimit="10" />
</svg>