<svg width="42" height="42" fill="none" xmlns="http://www.w3.org/2000/svg">
  <path
    d="M32 22.926V20.11l-4.423-.594a7.376 7.376 0 00-.655-1.639l2.743-3.544-1.964-1.966-3.539 2.755a7.07 7.07 0 00-1.636-.691L21.87 10h-2.813l-.584 4.43c-.57.15-1.12.37-1.636.655l-3.539-2.755-1.955 1.967 2.742 3.544a7.38 7.38 0 00-.663 1.674L9 20.11v2.817l4.423.594c.152.57.372 1.121.655 1.64l-2.743 3.543 1.955 1.967 3.539-2.756a7.07 7.07 0 001.636.656L19.05 33h2.813l.593-4.43a7.072 7.072 0 001.628-.655l3.538 2.755 1.964-1.967-2.751-3.641a6.898 6.898 0 00.654-1.64L32 22.927z"
    stroke="#fff" stroke-miterlimit="10" />
  <path d="M21 25a4 4 0 100-8 4 4 0 000 8zM21.383 1l3.198 3.199-3.198 3.198" stroke="#fff" stroke-miterlimit="10" />
  <path d="M4 21c0-9.389 7.51-17 16.774-17H24M20.123 41l-3.199-3.199 3.199-3.198" stroke="#fff"
    stroke-miterlimit="10" />
  <path d="M38 21c0 9.389-7.886 17-17.613 17H17" stroke="#fff" stroke-miterlimit="10" />
</svg>