<svg width="80" height="18" fill="none" xmlns="http://www.w3.org/2000/svg">
  <path
    d="M40.028 4.5c-3.105 0-5.344 2.025-5.344 5.063 0 3.037 2.517 5.063 5.625 5.063 1.876 0 3.53-.743 4.553-1.995l-2.151-1.243c-.568.622-1.432.985-2.402.985-1.347 0-2.492-.704-2.916-1.828h7.88c.062-.315.098-.642.098-.985 0-3.034-2.236-5.06-5.343-5.06zM37.37 8.578c.351-1.122 1.313-1.828 2.658-1.828 1.344 0 2.309.706 2.658 1.828H37.37zm-.636-7.172l-7.793 13.5-7.796-13.5h2.922l4.871 8.438 4.871-8.438h2.925zM10.392 0l10.393 18H0L10.392 0zm46.286 9.562c0 1.688 1.102 2.813 2.812 2.813 1.16 0 2.028-.526 2.475-1.384l2.16 1.246c-.894 1.49-2.57 2.388-4.635 2.388-3.108 0-5.343-2.025-5.343-5.063 0-3.037 2.238-5.062 5.343-5.062 2.065 0 3.738.897 4.635 2.388l-2.16 1.246c-.447-.858-1.316-1.384-2.475-1.384-1.707 0-2.812 1.125-2.812 2.812zm23.197-8.156v12.938h-2.531V1.405h2.531zM70.312 4.5c-3.105 0-5.343 2.025-5.343 5.063 0 3.037 2.52 5.063 5.624 5.063 1.876 0 3.53-.743 4.554-1.995l-2.152-1.243c-.568.622-1.431.985-2.402.985-1.347 0-2.492-.704-2.916-1.828h7.88c.062-.315.099-.642.099-.985 0-3.034-2.236-5.06-5.344-5.06zm-2.658 4.078c.352-1.122 1.311-1.828 2.658-1.828s2.31.706 2.658 1.828h-5.316zM53.302 4.781v2.725a3.206 3.206 0 00-.9-.137c-1.634 0-2.812 1.125-2.812 2.812v4.163h-2.531V4.78h2.531V7.37c0-1.43 1.662-2.588 3.713-2.588z"
    fill="#AAA" />
</svg>