<svg width="80" height="25" fill="none" xmlns="http://www.w3.org/2000/svg">
  <path fill="#fff"
    d="M49.595 0a3.096 3.096 0 00-3.086 3.106v9.321c0 3.427-2.77 6.215-6.174 6.215-3.404 0-6.174-2.788-6.174-6.215v-9.32C34.16 1.39 32.779 0 31.075 0c-1.703 0-3.085 1.39-3.085 3.106v9.321c0 6.852 5.538 12.427 12.345 12.427 6.808 0 12.346-5.575 12.346-12.427v-9.32C52.681 1.39 51.3 0 49.596 0h-.001zM63.29 12.427l-7.078 7.125a3.121 3.121 0 000 4.393 3.072 3.072 0 004.364 0l7.078-7.125 7.078 7.125a3.072 3.072 0 004.364 0 3.12 3.12 0 000-4.393l-7.078-7.125 7.078-7.125a3.12 3.12 0 000-4.392 3.072 3.072 0 00-4.364 0l-7.078 7.124L60.576.91a3.072 3.072 0 00-4.364 0 3.121 3.121 0 000 4.392l7.078 7.125zM22.787.237a3.071 3.071 0 00-3.363.673l-7.078 7.125L5.268.91A3.071 3.071 0 001.905.237 3.106 3.106 0 000 3.107v18.641a3.096 3.096 0 003.086 3.107 3.096 3.096 0 003.086-3.107V10.605l3.992 4.018a3.072 3.072 0 004.364 0l3.992-4.018v11.143a3.096 3.096 0 003.086 3.107 3.096 3.096 0 003.086-3.107V3.106a3.106 3.106 0 00-1.905-2.87z" />
</svg>