<svg width="64" height="65" fill="none" xmlns="http://www.w3.org/2000/svg">
  <path
    d="M46.546 35.763c0-9.697-7.758-21.333-17.455-21.333S11.636 26.066 11.636 35.763s7.758 9.697 17.455 9.697 17.455 0 17.455-9.697z"
    fill="#3E3E3E" stroke="#fff" />
  <path d="M34.327 36.345V58.26c0 2.522 6.206 4.655 14.158 4.655 7.952 0 14.157-2.133 14.157-4.655V36.345"
    fill="#FFF5E1" />
  <path
    d="M9.697 1.824h38.788a8.69 8.69 0 018.727 8.727V49.34a8.69 8.69 0 01-8.727 8.727H9.697A8.691 8.691 0 01.97 49.34V10.551a8.691 8.691 0 018.727-8.727z"
    stroke="#fff" />
  <path
    d="M34.327 36.345c0-2.521 6.4-4.654 14.158-4.654 7.758 0 14.157 2.133 14.157 4.654V58.26c0 2.522-6.206 4.655-14.157 4.655-7.952 0-14.158-2.133-14.158-4.655V36.345z"
    fill="#000" />
  <path
    d="M62.642 36.345c0 2.521-6.4 4.655-14.157 4.655-7.758 0-14.158-2.134-14.158-4.655m28.316 0c0-2.521-6.4-4.654-14.158-4.654-7.758 0-14.158 2.133-14.158 4.654m28.316 0V58.26c0 2.522-6.206 4.655-14.158 4.655-7.952 0-14.158-2.133-14.158-4.655V36.345M62.643 47.4c0 2.521-6.206 4.654-14.158 4.654-7.952 0-14.158-2.133-14.158-4.654"
    stroke="#fff" stroke-linecap="round" stroke-linejoin="round" />
</svg>